# xmcd
#
# Track frame offsets: 
#        150
#        13247
#        30900
#        43835
#        60325
#        80817
#        92255
#        108362
#        124542
#        144537
#        159760
#        173907
#
# Disc length: 2544 seconds
#
# Revision: 2
# Processed by: cddbd v1.4PL0 Copyright (c) Steve Scherf et al.
# Submitted via: ExactAudioCopy v0.90b4
#
DISCID=8a09ee0c
DTITLE=Harley Allen - Another River
DYEAR=1900
DGENRE=Country
TTITLE0=Love Ain't Supposed To Hurt
TTITLE1=The Waving Girl
TTITLE2=Another River I'd Cross
TTITLE3=Someone To Look Up To
TTITLE4=Gulf Shore Line
TTITLE5=Old Love Dreamin'
TTITLE6=In Your Loneliness
TTITLE7=Behind The Plow
TTITLE8=Between The Devil And Me
TTITLE9=Out Of My Hands
TTITLE10=Boy She Did
TTITLE11=New Faces In The Fields
EXTD=
EXTT0=
EXTT1=
EXTT2=
EXTT3=
EXTT4=
EXTT5=
EXTT6=
EXTT7=
EXTT8=
EXTT9=
EXTT10=
EXTT11=
PLAYORDER=
